<svg width="102" height="102" viewBox="0 0 102 102" fill="none" xmlns="http://www.w3.org/2000/svg">
<circle cx="51" cy="51" r="51" fill="#878986" fill-opacity="0.1"/>
<path d="M34.4023 44.67L38.5977 76.5572C38.7205 77.49 39.5155 78.1875 40.4567 78.1875H61.543C62.4842 78.1875 63.2792 77.49 63.402 76.5572L66.6411 51.9375L67.8748 42.5625H36.5098L34.4023 44.67Z" fill="#E9EEF2"/>
<path d="M49.125 50.0625V70.6875C49.125 71.7234 49.9641 72.5625 51 72.5625C52.0359 72.5625 52.875 71.7234 52.875 70.6875V50.0625C52.875 49.0266 52.0359 48.1875 51 48.1875C49.9641 48.1875 49.125 49.0266 49.125 50.0625Z" fill="#F2F8FF"/>
<path d="M41.625 50.0625V70.6875C41.625 71.7234 42.4641 72.5625 43.5 72.5625C44.5359 72.5625 45.375 71.7234 45.375 70.6875V50.0625C45.375 49.0266 44.5359 48.1875 43.5 48.1875C42.4641 48.1875 41.625 49.0266 41.625 50.0625Z" fill="#F2F8FF"/>
<path d="M56.625 50.0625V70.6875C56.625 71.7234 57.4641 72.5625 58.5 72.5625C59.5359 72.5625 60.375 71.7234 60.375 70.6875V50.0625C60.375 49.0266 59.5359 48.1875 58.5 48.1875C57.4641 48.1875 56.625 49.0266 56.625 50.0625Z" fill="#F2F8FF"/>
<path d="M49.125 36.9375L52.875 38.8125H57.5625L55.6875 34.125L51.9375 33.1875L49.125 36.9375Z" fill="#F1CF69"/>
<path d="M66 30.375L61.3125 31.3125V33.1875L62.25 36.9375L69.75 36L66.9375 32.25L66 30.375Z" fill="#F1CF69"/>
<path d="M49.2863 24.4837C48.5541 23.7515 47.3672 23.7515 46.635 24.4837L25.4213 45.6965C24.6891 46.4287 24.6891 47.6156 25.4213 48.3478L28.0725 51L51.9375 27.135L49.2863 24.4837Z" fill="#E9EEF2"/>
<path opacity="0.12" d="M63.402 76.5572L63.7686 73.77C51.7367 69.5447 43.4361 57.7734 44.1777 44.4216L44.2808 42.5625H36.5098L34.4023 44.67L38.5977 76.5572C38.7205 77.49 39.5155 78.1875 40.4567 78.1875H61.543C62.4842 78.1875 63.2792 77.49 63.402 76.5572Z" fill="#303030"/>
<path d="M48.6564 27.0937L26.4114 49.3387L28.0727 51L51.9377 27.135L49.2864 24.4837C48.5543 23.7515 47.3674 23.7515 46.6352 24.4837L46.3408 24.7781L48.6564 27.0937Z" fill="#D3D7DB"/>
<path d="M66.9377 32.25L66.0002 30.375L64.2959 30.7163L65.0627 32.25L67.8752 36L62.1931 36.7106L62.2502 36.9375L69.7502 36L66.9377 32.25Z" fill="#F2F8FF"/>
<path d="M53.8127 35.0625L55.3127 38.8125H57.5627L55.6877 34.125L51.9377 33.1875L51.0499 34.3716L53.8127 35.0625Z" fill="#F2F8FF"/>
<path d="M67.8748 41.625H38.7729L52.6001 27.7978C52.7764 27.6215 52.8748 27.3834 52.8748 27.135C52.8748 26.8865 52.7764 26.6475 52.6001 26.4722L49.9489 23.8209C48.8857 22.7578 47.0332 22.7578 45.971 23.8209L43.8298 25.9622L45.1554 27.2878L47.2976 25.1465C47.651 24.7922 48.2689 24.7922 48.6232 25.1465L50.6126 27.135L28.0723 49.6743L26.0839 47.685C25.9067 47.5087 25.8092 47.2734 25.8092 47.0222C25.8092 46.7709 25.9067 46.5365 26.0839 46.3593L43.2804 29.1628L41.9548 27.8372L40.6676 29.1243L39.342 27.7987C38.2442 26.7009 36.4601 26.7018 35.3642 27.7987L28.7351 34.4278C27.6382 35.5247 27.6382 37.3087 28.7351 38.4056L30.0607 39.7312L24.7573 45.0347C24.2257 45.5662 23.9332 46.2722 23.9332 47.024C23.9332 47.7759 24.2257 48.4818 24.7573 49.0125L27.4085 51.6647C27.5848 51.839 27.8239 51.9375 28.0723 51.9375C28.3207 51.9375 28.5598 51.839 28.7351 51.6628L33.7207 46.6772L37.6685 76.68C37.8523 78.0731 39.0504 79.125 40.4567 79.125H61.5429C62.9492 79.125 64.1473 78.0731 64.332 76.679L67.571 52.0593L65.712 51.8147L62.4729 76.4334C62.411 76.8993 62.0117 77.25 61.5429 77.25H40.4567C39.9879 77.25 39.5885 76.8993 39.5276 76.4343L35.3923 45.0056L36.8979 43.5H66.806L66.2051 48.0656L68.0642 48.3103L68.8048 42.6853C68.8404 42.4172 68.7589 42.1481 68.5807 41.9447C68.4017 41.7412 68.1448 41.625 67.8748 41.625ZM30.0617 37.079C29.696 36.7134 29.696 36.119 30.0617 35.7525L36.6907 29.1234C37.0554 28.7587 37.6507 28.7578 38.0173 29.1234L39.3429 30.449L31.3882 38.4037L30.0617 37.079Z" fill="#717171"/>
<path d="M48.1875 50.0625V70.6875C48.1875 72.2381 49.4494 73.5 51 73.5C52.5506 73.5 53.8125 72.2381 53.8125 70.6875V50.0625C53.8125 48.5119 52.5506 47.25 51 47.25C49.4494 47.25 48.1875 48.5119 48.1875 50.0625ZM51.9375 50.0625V70.6875C51.9375 71.2041 51.5166 71.625 51 71.625C50.4834 71.625 50.0625 71.2041 50.0625 70.6875V50.0625C50.0625 49.5459 50.4834 49.125 51 49.125C51.5166 49.125 51.9375 49.5459 51.9375 50.0625Z" fill="#717171"/>
<path d="M40.6875 50.0625V70.6875C40.6875 72.2381 41.9494 73.5 43.5 73.5C45.0506 73.5 46.3125 72.2381 46.3125 70.6875V50.0625C46.3125 48.5119 45.0506 47.25 43.5 47.25C41.9494 47.25 40.6875 48.5119 40.6875 50.0625ZM44.4375 50.0625V70.6875C44.4375 71.2041 44.0166 71.625 43.5 71.625C42.9834 71.625 42.5625 71.2041 42.5625 70.6875V50.0625C42.5625 49.5459 42.9834 49.125 43.5 49.125C44.0166 49.125 44.4375 49.5459 44.4375 50.0625Z" fill="#717171"/>
<path d="M55.6875 50.0625V70.6875C55.6875 72.2381 56.9494 73.5 58.5 73.5C60.0506 73.5 61.3125 72.2381 61.3125 70.6875V50.0625C61.3125 48.5119 60.0506 47.25 58.5 47.25C56.9494 47.25 55.6875 48.5119 55.6875 50.0625ZM59.4375 50.0625V70.6875C59.4375 71.2041 59.0166 71.625 58.5 71.625C57.9834 71.625 57.5625 71.2041 57.5625 70.6875V50.0625C57.5625 49.5459 57.9834 49.125 58.5 49.125C59.0166 49.125 59.4375 49.5459 59.4375 50.0625Z" fill="#717171"/>
<path d="M55.915 33.2156L52.165 32.2781C51.7984 32.1872 51.4131 32.3241 51.1881 32.625L48.3756 36.375C48.2088 36.5972 48.1488 36.8822 48.2134 37.1531C48.2772 37.4241 48.4581 37.6519 48.7066 37.7766L52.4566 39.6516C52.585 39.7162 52.7294 39.75 52.8747 39.75H57.5622C57.8734 39.75 58.1641 39.5953 58.3384 39.3384C58.5128 39.0816 58.5484 38.7534 58.4331 38.4647L56.5581 33.7772C56.4456 33.4978 56.2066 33.2887 55.915 33.2156ZM53.0959 37.875L50.5488 36.6019L52.3141 34.2487L54.9944 34.9191L56.1775 37.875H53.0959Z" fill="#717171"/>
<path d="M67.7381 31.7549L66.8391 29.9558C66.6497 29.5771 66.2288 29.3727 65.8163 29.4561L61.1288 30.3936C60.69 30.4808 60.375 30.8652 60.375 31.3124V33.1874C60.375 33.2642 60.3844 33.3402 60.4031 33.4152L61.3406 37.1652C61.4456 37.5861 61.8244 37.8749 62.2491 37.8749C62.2884 37.8749 62.3269 37.873 62.3663 37.8674L69.8663 36.9299C70.1981 36.8886 70.4822 36.6739 70.6125 36.3655C70.7428 36.0571 70.6997 35.7036 70.4991 35.4364L67.7381 31.7549ZM62.9578 35.9042L62.25 33.0721V32.0811L65.4816 31.4352L66.0984 32.6699C66.1237 32.7205 66.1538 32.7683 66.1875 32.8133L68.0306 35.2714L62.9578 35.9042Z" fill="#717171"/>
<path d="M62.25 22.875H64.125V24.75H62.25V22.875Z" fill="#717171"/>
<path d="M70.5041 28.694L71.6469 30.1809C73.7197 28.589 76.3794 27.9703 78.9416 28.4812L79.31 26.6428C76.2125 26.024 73.0044 26.7722 70.5041 28.694Z" fill="#717171"/>
<path d="M74.4375 32.25H76.3125V34.125H74.4375V32.25Z" fill="#717171"/>
<path d="M66 27.5625H67.875C67.875 26.0119 69.1369 24.75 70.6875 24.75V22.875C68.1028 22.875 66 24.9778 66 27.5625Z" fill="#717171"/>
</svg>
