<svg width="54" height="58" viewBox="0 0 54 58" fill="none" xmlns="http://www.w3.org/2000/svg">
<path d="M0.75 52.4375C0.75293 55.0251 2.84988 57.1221 5.4375 57.125H40.125C47.3732 57.1257 53.2495 51.2505 53.2502 44.0023C53.2507 38.9323 50.3309 34.3156 45.75 32.1431V13.0625C45.75 12.8138 45.6512 12.5754 45.4754 12.3996L34.2254 1.14957C34.0497 0.973789 33.8112 0.875 33.5625 0.875H5.4375C2.84988 0.87793 0.75293 2.97488 0.75 5.5625V52.4375ZM51.375 44C51.375 50.2132 46.3382 55.25 40.125 55.25C33.9118 55.25 28.875 50.2132 28.875 44C28.875 37.7868 33.9118 32.75 40.125 32.75C46.3354 32.757 51.368 37.7896 51.375 44ZM34.5 4.07574L42.5493 12.125H37.3125C35.7599 12.1232 34.5018 10.8651 34.5 9.3125V4.07574ZM2.625 5.5625C2.62676 4.01 3.885 2.75176 5.4375 2.75H32.625V9.3125C32.6279 11.9001 34.7249 13.9971 37.3125 14H43.875V31.4218C36.9299 29.3496 29.62 33.2997 27.5476 40.2447C25.8335 45.9896 28.2306 52.1656 33.3714 55.25H5.4375C3.885 55.2482 2.62676 53.99 2.625 52.4375V5.5625Z" fill="#717171"/>
<path d="M15.75 18.6875C15.75 19.2052 16.1698 19.625 16.6875 19.625H39.1875C39.7052 19.625 40.125 19.2052 40.125 18.6875C40.125 18.1698 39.7052 17.75 39.1875 17.75H16.6875C16.1698 17.75 15.75 18.1698 15.75 18.6875Z" fill="#717171"/>
<path d="M7.3125 25.25H26.0625C26.5802 25.25 27 24.8302 27 24.3125C27 23.7948 26.5802 23.375 26.0625 23.375H7.3125C6.79477 23.375 6.375 23.7948 6.375 24.3125C6.375 24.8302 6.79477 25.25 7.3125 25.25Z" fill="#717171"/>
<path d="M29.8125 29H22.3125C21.7948 29 21.375 29.4198 21.375 29.9375C21.375 30.4552 21.7948 30.875 22.3125 30.875H29.8125C30.3302 30.875 30.75 30.4552 30.75 29.9375C30.75 29.4198 30.3302 29 29.8125 29Z" fill="#717171"/>
<path d="M7.3125 36.5H24.1875C24.7052 36.5 25.125 36.0802 25.125 35.5625C25.125 35.0448 24.7052 34.625 24.1875 34.625H7.3125C6.79477 34.625 6.375 35.0448 6.375 35.5625C6.375 36.0802 6.79477 36.5 7.3125 36.5Z" fill="#717171"/>
<path d="M7.3125 19.625H12.9375C13.4552 19.625 13.875 19.2052 13.875 18.6875C13.875 18.1698 13.4552 17.75 12.9375 17.75H7.3125C6.79477 17.75 6.375 18.1698 6.375 18.6875C6.375 19.2052 6.79477 19.625 7.3125 19.625Z" fill="#717171"/>
<path d="M39.1875 23.375H29.8125C29.2948 23.375 28.875 23.7948 28.875 24.3125C28.875 24.8302 29.2948 25.25 29.8125 25.25H39.1875C39.7052 25.25 40.125 24.8302 40.125 24.3125C40.125 23.7948 39.7052 23.375 39.1875 23.375Z" fill="#717171"/>
<path d="M7.3125 30.875H18.5625C19.0802 30.875 19.5 30.4552 19.5 29.9375C19.5 29.4198 19.0802 29 18.5625 29H7.3125C6.79477 29 6.375 29.4198 6.375 29.9375C6.375 30.4552 6.79477 30.875 7.3125 30.875Z" fill="#717171"/>
<path d="M22.3125 45.875H18.5625C18.0448 45.875 17.625 46.2948 17.625 46.8125C17.625 47.3302 18.0448 47.75 18.5625 47.75H22.3125C22.8302 47.75 23.25 47.3302 23.25 46.8125C23.25 46.2948 22.8302 45.875 22.3125 45.875Z" fill="#717171"/>
<path d="M7.3125 47.75H14.8125C15.3302 47.75 15.75 47.3302 15.75 46.8125C15.75 46.2948 15.3302 45.875 14.8125 45.875H7.3125C6.79477 45.875 6.375 46.2948 6.375 46.8125C6.375 47.3302 6.79477 47.75 7.3125 47.75Z" fill="#717171"/>
<path d="M7.3125 42.125H12.9375C13.4552 42.125 13.875 41.7052 13.875 41.1875C13.875 40.6698 13.4552 40.25 12.9375 40.25H7.3125C6.79477 40.25 6.375 40.6698 6.375 41.1875C6.375 41.7052 6.79477 42.125 7.3125 42.125Z" fill="#717171"/>
<path d="M7.3125 14H18.5625C19.0802 14 19.5 13.5802 19.5 13.0625C19.5 12.5448 19.0802 12.125 18.5625 12.125H7.3125C6.79477 12.125 6.375 12.5448 6.375 13.0625C6.375 13.5802 6.79477 14 7.3125 14Z" fill="#717171"/>
<path d="M22.3125 40.25H16.6875C16.1698 40.25 15.75 40.6698 15.75 41.1875C15.75 41.7052 16.1698 42.125 16.6875 42.125H22.3125C22.8302 42.125 23.25 41.7052 23.25 41.1875C23.25 40.6698 22.8302 40.25 22.3125 40.25Z" fill="#717171"/>
<path d="M34.8375 37.6548C34.4396 37.9863 34.3858 38.5775 34.7172 38.9752C34.7172 38.9752 34.7172 38.9753 34.7174 38.9753C34.7174 38.9753 38.272 43.2467 39.4013 44.5961C39.5151 44.7322 39.7009 44.8905 40.0261 44.9324C40.0589 44.9366 40.092 44.9376 40.1251 44.9376H46.6876C47.2053 44.9376 47.6251 44.5178 47.6251 44.0001C47.6251 43.4823 47.2053 43.0626 46.6876 43.0626H40.5642L36.1579 37.7748C35.8265 37.3771 35.2353 37.3233 34.8375 37.6548Z" fill="#717171"/>
</svg>
